<svg width="632" height="484" viewBox="0 0 632 484" fill="none" xmlns="http://www.w3.org/2000/svg">
<path d="M631.324 426.979H0V427.295H631.324V426.979Z" fill="#EBEBEB"/>
<path d="M451.624 435.578H409.805V435.893H451.624V435.578Z" fill="#EBEBEB"/>
<path d="M552.105 438.343H541.133V438.658H552.105V438.343Z" fill="#EBEBEB"/>
<path d="M477.117 447.295H452.886V447.611H477.117V447.295Z" fill="#EBEBEB"/>
<path d="M315.662 443.027H261.128V443.343H315.662V443.027Z" fill="#EBEBEB"/>
<path d="M249.878 443.027H241.885V443.343H249.878V443.027Z" fill="#EBEBEB"/>
<path d="M215.9 437.699H97.6153V438.014H215.9V437.699Z" fill="#EBEBEB"/>
<path d="M299.247 370.665H55.4428C53.5329 370.661 51.7023 369.9 50.353 368.549C49.0036 367.197 48.2458 365.365 48.2458 363.455V20.7348C48.2624 18.8358 49.0276 17.02 50.3751 15.6819C51.7227 14.3438 53.5438 13.5914 55.4428 13.5882H299.247C301.16 13.5882 302.993 14.3478 304.345 15.6999C305.698 17.052 306.457 18.8858 306.457 20.7979V363.455C306.457 365.367 305.698 367.201 304.345 368.553C302.993 369.905 301.16 370.665 299.247 370.665ZM55.4428 13.8407C53.6166 13.8441 51.8663 14.5719 50.5762 15.8644C49.286 17.1569 48.5614 18.9085 48.5614 20.7348V363.455C48.5614 365.281 49.286 367.033 50.5762 368.325C51.8663 369.618 53.6166 370.346 55.4428 370.349H299.247C301.075 370.346 302.826 369.618 304.119 368.326C305.411 367.034 306.138 365.283 306.141 363.455V20.7348C306.138 18.9074 305.411 17.1558 304.119 15.8636C302.826 14.5715 301.075 13.8441 299.247 13.8407H55.4428Z" fill="#EBEBEB"/>
<path d="M572.371 370.665H328.553C326.642 370.661 324.81 369.901 323.459 368.549C322.108 367.198 321.347 365.366 321.344 363.455V20.7348C321.364 18.8346 322.132 17.0189 323.481 15.6812C324.831 14.3434 326.653 13.5914 328.553 13.5882H572.371C574.267 13.5948 576.085 14.3486 577.43 15.6864C578.775 17.0241 579.538 18.838 579.555 20.7348V363.455C579.555 365.363 578.799 367.193 577.452 368.544C576.106 369.896 574.278 370.658 572.371 370.665ZM328.553 13.8407C326.726 13.8441 324.974 14.5715 323.682 15.8636C322.39 17.1558 321.663 18.9074 321.659 20.7348V363.455C321.663 365.283 322.39 367.034 323.682 368.326C324.974 369.618 326.726 370.346 328.553 370.349H572.371C574.198 370.346 575.95 369.618 577.242 368.326C578.534 367.034 579.261 365.283 579.265 363.455V20.7348C579.261 18.9074 578.534 17.1558 577.242 15.8636C575.95 14.5715 574.198 13.8441 572.371 13.8407H328.553Z" fill="#EBEBEB"/>
<path d="M201.316 313.618L550.514 313.618V46.0129L201.316 46.0129L201.316 313.618Z" fill="#E6E6E6"/>
<path d="M181.468 39.6871H562.497C562.744 39.6786 562.991 39.7201 563.222 39.8089C563.453 39.8977 563.663 40.0322 563.841 40.2042C564.019 40.3763 564.161 40.5823 564.257 40.8102C564.354 41.0381 564.403 41.2831 564.403 41.5306C564.403 41.7721 564.356 42.0112 564.263 42.2341C564.17 42.4571 564.034 42.6595 563.863 42.8297C563.691 42.9998 563.488 43.1344 563.264 43.2257C563.041 43.317 562.801 43.3631 562.56 43.3614H181.468C181.226 43.3631 180.987 43.317 180.763 43.2257C180.54 43.1344 180.336 42.9998 180.165 42.8297C179.994 42.6595 179.858 42.4571 179.765 42.2341C179.672 42.0112 179.624 41.7721 179.624 41.5306C179.624 41.0417 179.818 40.5728 180.164 40.2271C180.51 39.8813 180.979 39.6871 181.468 39.6871Z" fill="#F5F5F5"/>
<path d="M193.463 313.618L546.84 313.618V46.0129L193.463 46.0129L193.463 313.618Z" fill="#EBEBEB"/>
<path d="M535.83 302.621V57.0233L204.46 57.0233V302.621H535.83Z" fill="#FAFAFA"/>
<path d="M467.76 302.621L391.32 57.0233H346.837L423.29 302.621H467.76Z" fill="white"/>
<path d="M392.279 302.621L315.826 57.0233H298.49L374.93 302.621H392.279Z" fill="white"/>
<path d="M205.849 302.621L205.849 57.0233H204.448L204.448 302.621H205.849Z" fill="#E6E6E6"/>
<g opacity="0.4">
<path d="M520.488 295.297H554.643V36.3917H520.488V295.297Z" fill="#F0F0F0"/>
<path d="M507.18 295.297H533.797V36.3917H507.18L507.18 295.297Z" fill="#E6E6E6"/>
<path d="M486.334 295.297H520.488V36.3917H486.334V295.297Z" fill="#F0F0F0"/>
<path d="M473.013 295.297H499.63L499.63 36.3917H473.013L473.013 295.297Z" fill="#E6E6E6"/>
<path d="M452.179 295.297H486.334L486.334 36.3917H452.179V295.297Z" fill="#F0F0F0"/>
</g>
<g opacity="0.4">
<path d="M211.519 295.297H222.428L222.428 36.3916H211.519L211.519 295.297Z" fill="#F0F0F0"/>
<path d="M207.264 295.297H215.761L215.761 36.3916H207.264L207.264 295.297Z" fill="#E6E6E6"/>
<path d="M200.597 295.297H211.506L211.506 36.3916H200.597L200.597 295.297Z" fill="#F0F0F0"/>
<path d="M196.354 295.297H204.852L204.852 36.3916H196.354L196.354 295.297Z" fill="#E6E6E6"/>
<path d="M189.688 295.297H200.597L200.597 36.3916H189.688L189.688 295.297Z" fill="#F0F0F0"/>
</g>
<path d="M95.191 178.49H173.425V80.1423L95.191 80.1423L95.191 178.49Z" fill="#F0F0F0"/>
<path d="M77.9053 178.49H170.419V80.1423L77.9053 80.1423L77.9053 178.49Z" fill="#F5F5F5"/>
<path d="M85.658 87.895V170.737H162.667V87.895H85.658Z" fill="white"/>
<path d="M513.67 420.666H529.138V337.735H513.67V420.666Z" fill="#F0F0F0"/>
<path d="M289.803 428.368L522.736 428.368V420.666H289.803V428.368Z" fill="#F0F0F0"/>
<path d="M513.658 337.748H283.414V420.678H513.658V337.748Z" fill="#FAFAFA"/>
<path d="M500.577 347.836H296.52V373.354H500.577V347.836Z" fill="#F0F0F0"/>
<path d="M500.577 380.615H296.52V406.133H500.577V380.615Z" fill="#F0F0F0"/>
<path d="M341.18 350.134H455.904C457.187 350.134 458.227 349.094 458.227 347.811V346.99C458.227 345.707 457.187 344.667 455.904 344.667H341.18C339.897 344.667 338.857 345.707 338.857 346.99V347.811C338.857 349.094 339.897 350.134 341.18 350.134Z" fill="#FAFAFA"/>
<path d="M341.18 382.913H455.904C457.187 382.913 458.227 381.872 458.227 380.589V379.768C458.227 378.485 457.187 377.445 455.904 377.445H341.18C339.897 377.445 338.857 378.485 338.857 379.768V380.589C338.857 381.872 339.897 382.913 341.18 382.913Z" fill="#FAFAFA"/>
<path d="M278.969 337.748L513.658 337.748V330.311H278.969V337.748Z" fill="#F0F0F0"/>
<path d="M533.797 330.311H513.67V337.748H533.797V330.311Z" fill="#E6E6E6"/>
<path d="M126.606 389.302H134.106C134.106 382.597 134.106 348.354 134.636 309.376C135.091 273.252 135.899 258.782 136.631 253.251L130.608 263.757C128.512 271.976 125.027 286.03 124.724 294.666C123.739 321.838 127.527 360.816 126.606 389.302Z" fill="#E6E6E6"/>
<path d="M120.911 258.782C110.924 239.249 90.9106 229.046 70.5567 219.4C62.5516 215.612 85.0267 262.33 101.378 283.58C114.004 299.994 126.34 299.679 130.027 315.942C130.735 297.103 129.522 275.625 120.911 258.782Z" fill="#E6E6E6"/>
<path d="M139.889 291.838C148.727 280.285 163.323 277.33 178.147 274.868C183.955 273.908 163.74 301.838 150.369 313.227C140.015 322.066 131.77 319.262 127.527 329.843C129.131 316.523 132.262 301.787 139.889 291.838Z" fill="#E6E6E6"/>
<path d="M122.048 313.921C115.166 304.944 103.84 302.646 92.3248 300.739C87.8045 299.994 103.537 321.674 113.878 330.513C121.921 337.394 128.323 335.21 131.555 343.43C130.419 333.101 127.982 321.674 122.048 313.921Z" fill="#E6E6E6"/>
<path d="M136.214 349.099C140.962 343.038 148.689 341.523 156.543 340.26C159.624 339.78 148.79 354.452 141.682 360.463C136.164 365.084 131.82 363.556 129.522 369.137C130.406 362.079 132.136 354.326 136.214 349.099Z" fill="#E6E6E6"/>
<path d="M131.745 259.514C137.275 240.36 159.094 210.561 181.556 204.349C190.395 201.95 158.69 250.423 147.831 274.54C139.384 293.328 131.416 304.729 130.318 318.189C124.712 301.27 126.265 278.668 131.745 259.514Z" fill="#E6E6E6"/>
<path d="M133.613 426.979C118.058 426.979 105.204 424.668 104.307 409.15L101.782 382.635H165.558L163.033 409.15C162.01 424.668 149.157 426.979 133.613 426.979Z" fill="#F0F0F0"/>
<path d="M169.624 388.026H97.59L95.5319 373.342H171.682L169.624 388.026Z" fill="#F0F0F0"/>
<path d="M315.662 484C450.869 484 560.477 477.601 560.477 469.707C560.477 461.813 450.869 455.414 315.662 455.414C180.454 455.414 70.8471 461.813 70.8471 469.707C70.8471 477.601 180.454 484 315.662 484Z" fill="#F5F5F5"/>
<path d="M478.846 118.931C478.788 118.943 478.728 118.943 478.67 118.931C478.509 118.884 478.373 118.775 478.293 118.628C478.212 118.482 478.193 118.309 478.24 118.148C489.541 80.5085 481.422 47.4398 456.523 29.5228C433.694 13.1715 402.557 13.424 379.034 30.1794C312.48 77.5665 261.608 86.746 208.88 60.8996C208.805 60.8631 208.738 60.8123 208.683 60.75C208.628 60.6878 208.586 60.6153 208.559 60.5367C208.532 60.4582 208.521 60.3751 208.526 60.2922C208.531 60.2093 208.553 60.1282 208.589 60.0536C208.626 59.979 208.677 59.9123 208.739 59.8573C208.801 59.8023 208.874 59.7602 208.952 59.7332C209.031 59.7062 209.114 59.695 209.197 59.7001C209.28 59.7053 209.361 59.7267 209.435 59.7632C261.684 85.3823 312.177 76.1776 378.302 29.144C402.292 12.0856 433.997 11.8331 457.255 28.5C482.622 46.6822 490.917 80.2686 479.452 118.514C479.408 118.638 479.325 118.745 479.216 118.82C479.108 118.895 478.978 118.933 478.846 118.931Z" fill="#37474F"/>
<path d="M437.065 312.419C424.304 312.359 411.735 309.301 400.373 303.492C353.655 279.969 317.316 281.03 303.313 306.32C303.273 306.393 303.22 306.458 303.155 306.51C303.09 306.563 303.016 306.602 302.936 306.625C302.856 306.648 302.773 306.656 302.69 306.647C302.608 306.638 302.527 306.613 302.454 306.573C302.309 306.49 302.202 306.355 302.155 306.195C302.108 306.034 302.125 305.862 302.202 305.714C316.584 279.754 353.491 278.504 400.941 302.356C412.285 308.227 424.889 311.246 437.663 311.151C450.436 311.057 462.994 307.851 474.25 301.813C502.142 287.305 523.077 258.049 527.585 227.317C527.597 227.234 527.625 227.155 527.668 227.084C527.711 227.013 527.767 226.951 527.834 226.902C527.901 226.853 527.977 226.817 528.058 226.797C528.138 226.777 528.222 226.774 528.304 226.786C528.469 226.814 528.616 226.905 528.715 227.039C528.814 227.173 528.856 227.341 528.835 227.506C524.264 258.668 503.064 288.277 474.831 302.962C463.191 309.119 450.233 312.364 437.065 312.419Z" fill="#37474F"/>
<path d="M515.413 238.655H515.198C515.041 238.598 514.912 238.481 514.841 238.329C514.77 238.178 514.762 238.004 514.819 237.847C528.367 200.611 509.036 185.738 490.336 171.343C472.659 157.707 454.288 143.565 464.73 110.812C464.754 110.732 464.794 110.658 464.848 110.595C464.901 110.531 464.967 110.478 465.042 110.441C465.116 110.403 465.197 110.381 465.28 110.375C465.363 110.369 465.447 110.381 465.525 110.408C465.604 110.432 465.676 110.472 465.739 110.525C465.802 110.577 465.854 110.642 465.891 110.715C465.929 110.788 465.952 110.867 465.958 110.949C465.965 111.031 465.955 111.113 465.929 111.191C455.816 143.111 472.925 156.267 491.17 170.308C510.223 184.967 529.933 200.132 516.069 238.238C516.026 238.374 515.937 238.49 515.817 238.566C515.697 238.642 515.554 238.674 515.413 238.655Z" fill="#37474F"/>
<path opacity="0.1" d="M503.455 244.728C494.225 276.105 459.023 300.146 427.179 292.709C388.567 283.631 368.213 250.726 375.057 218.743C381.9 186.76 417.545 203.187 449.553 196.331C490.614 187.48 512.635 213.339 503.455 244.728Z" fill="#37474F"/>
<path d="M319.69 64.4224C319.797 65.2795 319.647 66.1492 319.259 66.9208C318.87 67.6925 318.262 68.3313 317.509 68.7561C316.757 69.1809 315.896 69.3725 315.035 69.3065C314.173 69.2406 313.351 68.92 312.672 68.3856C311.994 67.8512 311.489 67.1271 311.223 66.3053C310.957 65.4835 310.941 64.6012 311.178 63.7704C311.414 62.9396 311.892 62.1978 312.551 61.6395C313.21 61.0811 314.021 60.7312 314.879 60.6344C316.018 60.506 317.162 60.8315 318.062 61.5406C318.963 62.2497 319.547 63.2851 319.69 64.4224Z" fill="white"/>
<path d="M315.359 69.877C314.399 69.8759 313.46 69.597 312.655 69.0741C311.85 68.5511 311.213 67.8064 310.822 66.9298C310.43 66.0532 310.301 65.082 310.45 64.1336C310.598 63.1851 311.017 62.2998 311.658 61.5845C312.298 60.8692 313.131 60.3544 314.058 60.1021C314.984 59.8499 315.963 59.8711 316.878 60.1631C317.792 60.4551 318.603 61.0054 319.211 61.7477C319.82 62.4901 320.201 63.3926 320.308 64.3466C320.437 65.6558 320.05 66.9635 319.229 67.9916C318.409 69.0197 317.219 69.6871 315.914 69.8518C315.73 69.8725 315.544 69.881 315.359 69.877ZM315.359 61.1774H314.955C314.225 61.2592 313.537 61.5553 312.976 62.0283C312.415 62.5014 312.006 63.1301 311.802 63.8351C311.598 64.5401 311.608 65.2897 311.83 65.9892C312.052 66.6887 312.476 67.3067 313.049 67.7652C313.622 68.2236 314.319 68.5019 315.05 68.5649C315.781 68.6279 316.514 68.4728 317.157 68.1191C317.8 67.7654 318.324 67.2291 318.663 66.5779C319.001 65.9266 319.139 65.1897 319.058 64.4603C318.937 63.5606 318.497 62.7342 317.818 62.1317C317.139 61.5291 316.266 61.1905 315.359 61.1774Z" fill="#37474F"/>
<path d="M469.705 110.484C469.812 111.341 469.662 112.212 469.274 112.984C468.885 113.756 468.276 114.395 467.523 114.82C466.77 115.245 465.908 115.436 465.046 115.369C464.184 115.302 463.362 114.981 462.683 114.445C462.005 113.909 461.501 113.184 461.236 112.361C460.971 111.538 460.957 110.655 461.195 109.824C461.434 108.994 461.914 108.252 462.575 107.695C463.236 107.138 464.047 106.79 464.907 106.696C466.044 106.571 467.184 106.898 468.082 107.607C468.979 108.316 469.562 109.349 469.705 110.484Z" fill="white"/>
<path d="M465.323 115.951C464.522 115.959 463.73 115.774 463.015 115.411C462.3 115.047 461.683 114.517 461.216 113.865C460.75 113.213 460.448 112.458 460.335 111.664C460.223 110.87 460.303 110.06 460.57 109.304C460.837 108.548 461.282 107.867 461.868 107.32C462.454 106.772 463.163 106.374 463.936 106.159C464.708 105.944 465.521 105.918 466.305 106.084C467.09 106.25 467.823 106.603 468.442 107.112C469.471 107.943 470.133 109.145 470.286 110.458C470.424 111.771 470.043 113.085 469.225 114.12C468.393 115.112 467.205 115.738 465.917 115.863C465.721 115.907 465.523 115.936 465.323 115.951ZM465.323 107.251C465.185 107.239 465.045 107.239 464.907 107.251C464.416 107.297 463.939 107.441 463.505 107.675C463.071 107.91 462.689 108.229 462.381 108.615C462.075 108.997 461.846 109.435 461.71 109.906C461.573 110.376 461.531 110.868 461.586 111.355C461.713 112.327 462.211 113.212 462.976 113.824C463.741 114.436 464.714 114.728 465.69 114.638C466.68 114.529 467.587 114.034 468.215 113.262C468.52 112.882 468.747 112.445 468.881 111.977C469.016 111.509 469.055 111.018 468.998 110.534C468.904 109.623 468.474 108.78 467.793 108.169C467.111 107.557 466.226 107.221 465.311 107.226L465.323 107.251Z" fill="#37474F"/>
<path d="M513.077 272.431C513.181 273.285 513.03 274.152 512.641 274.92C512.253 275.688 511.645 276.323 510.894 276.745C510.144 277.167 509.285 277.356 508.427 277.289C507.569 277.222 506.75 276.902 506.074 276.368C505.398 275.835 504.896 275.113 504.632 274.293C504.367 273.474 504.352 272.595 504.589 271.767C504.825 270.939 505.302 270.2 505.959 269.644C506.616 269.088 507.423 268.739 508.279 268.643C509.415 268.518 510.556 268.845 511.454 269.554C512.351 270.263 512.934 271.296 513.077 272.431Z" fill="white"/>
<path d="M508.746 277.923C507.783 277.923 506.84 277.643 506.033 277.118C505.225 276.593 504.587 275.846 504.195 274.966C503.803 274.087 503.674 273.112 503.823 272.161C503.973 271.21 504.395 270.322 505.038 269.605C505.681 268.888 506.518 268.373 507.448 268.122C508.377 267.87 509.36 267.893 510.277 268.188C511.194 268.483 512.006 269.037 512.615 269.783C513.223 270.529 513.603 271.436 513.708 272.393C513.78 273.043 513.723 273.701 513.54 274.329C513.358 274.957 513.053 275.543 512.644 276.053C512.234 276.563 511.728 276.988 511.155 277.302C510.581 277.617 509.952 277.815 509.301 277.886C509.117 277.911 508.932 277.924 508.746 277.923ZM508.746 269.224C508.607 269.212 508.468 269.212 508.329 269.224C507.601 269.308 506.913 269.606 506.354 270.08C505.795 270.555 505.389 271.184 505.187 271.889C504.985 272.594 504.996 273.343 505.219 274.041C505.442 274.74 505.867 275.356 506.441 275.814C507.014 276.271 507.71 276.548 508.44 276.61C509.171 276.672 509.904 276.517 510.546 276.163C511.188 275.809 511.712 275.273 512.05 274.623C512.388 273.972 512.525 273.236 512.445 272.507C512.336 271.517 511.842 270.609 511.069 269.981C510.406 269.477 509.592 269.21 508.758 269.224H508.746Z" fill="#37474F"/>
<path d="M468.531 271.825C468.131 272.585 467.515 273.209 466.76 273.619C466.006 274.029 465.147 274.206 464.292 274.128C463.437 274.05 462.624 273.72 461.956 273.18C461.288 272.641 460.796 271.915 460.54 271.095C460.284 270.276 460.277 269.399 460.52 268.575C460.763 267.751 461.244 267.018 461.903 266.468C462.562 265.918 463.37 265.575 464.223 265.484C465.077 265.392 465.939 265.556 466.7 265.953C467.208 266.216 467.66 266.576 468.028 267.015C468.396 267.453 468.673 267.96 468.843 268.506C469.014 269.052 469.074 269.627 469.02 270.197C468.966 270.767 468.8 271.32 468.531 271.825Z" fill="white"/>
<path d="M464.654 274.792C463.85 274.789 463.058 274.595 462.344 274.224C461.186 273.597 460.319 272.542 459.927 271.285C459.536 270.028 459.651 268.668 460.248 267.494C460.872 266.343 461.924 265.483 463.177 265.101C464.429 264.719 465.782 264.845 466.943 265.452C468.103 266.059 468.978 267.098 469.38 268.344C469.781 269.591 469.675 270.946 469.086 272.115C468.658 272.92 468.019 273.593 467.239 274.065C466.459 274.536 465.566 274.787 464.654 274.792ZM464.654 266.092C463.996 266.092 463.35 266.267 462.782 266.598C462.214 266.93 461.744 267.406 461.42 267.979C461.097 268.551 460.931 269.2 460.941 269.858C460.95 270.515 461.134 271.159 461.474 271.722C461.814 272.285 462.297 272.748 462.875 273.063C463.452 273.378 464.103 273.534 464.76 273.515C465.418 273.496 466.058 273.303 466.617 272.955C467.175 272.607 467.631 272.116 467.937 271.534C468.386 270.655 468.474 269.634 468.181 268.691C467.889 267.747 467.239 266.955 466.371 266.484C465.836 266.229 465.247 266.104 464.654 266.118V266.092Z" fill="#37474F"/>
<path d="M480.955 254.59C480.838 254.586 480.726 254.542 480.639 254.463L455.159 231.458C455.087 231.369 455.048 231.258 455.051 231.144C455.053 231.03 455.096 230.92 455.173 230.835C455.249 230.749 455.353 230.694 455.466 230.679C455.579 230.663 455.694 230.689 455.79 230.751L480.601 253.15L484.023 226.117C484.031 226.055 484.051 225.996 484.082 225.942C484.113 225.888 484.154 225.841 484.204 225.804C484.253 225.766 484.309 225.739 484.369 225.723C484.429 225.707 484.492 225.704 484.554 225.713C484.615 225.721 484.675 225.741 484.728 225.772C484.782 225.803 484.829 225.844 484.867 225.893C484.904 225.943 484.932 225.999 484.947 226.059C484.963 226.119 484.966 226.182 484.958 226.243L481.422 254.173C481.413 254.258 481.379 254.339 481.325 254.406C481.272 254.473 481.2 254.524 481.119 254.552C481.068 254.577 481.012 254.59 480.955 254.59Z" fill="#263238"/>
<path d="M464.654 270.284C464.59 270.284 464.527 270.27 464.468 270.244C464.409 270.218 464.357 270.18 464.313 270.133C464.226 270.043 464.177 269.923 464.177 269.798C464.177 269.673 464.226 269.553 464.313 269.464L480.589 253.769C480.678 253.682 480.798 253.633 480.923 253.633C481.048 253.633 481.168 253.682 481.258 253.769C481.303 253.812 481.338 253.864 481.362 253.922C481.387 253.979 481.399 254.041 481.399 254.104C481.399 254.166 481.387 254.228 481.362 254.285C481.338 254.343 481.303 254.395 481.258 254.438L464.982 270.133C464.941 270.179 464.89 270.217 464.834 270.243C464.778 270.269 464.716 270.283 464.654 270.284Z" fill="#263238"/>
<path d="M458.833 232.86C458.494 233.532 457.963 234.087 457.307 234.456C456.65 234.825 455.899 234.989 455.149 234.929C454.399 234.869 453.683 234.587 453.094 234.119C452.505 233.65 452.069 233.017 451.841 232.3C451.613 231.582 451.604 230.813 451.816 230.091C452.027 229.369 452.448 228.725 453.026 228.244C453.605 227.762 454.313 227.463 455.062 227.386C455.811 227.308 456.565 227.456 457.23 227.809C458.104 228.274 458.762 229.063 459.062 230.007C459.361 230.951 459.28 231.975 458.833 232.86Z" fill="#37474F"/>
<path d="M486.864 227.418C486.619 227.887 486.241 228.273 485.777 228.528C485.312 228.782 484.783 228.893 484.256 228.847C483.728 228.8 483.227 228.598 482.814 228.267C482.401 227.935 482.096 227.489 481.937 226.984C481.778 226.479 481.773 225.938 481.921 225.43C482.069 224.921 482.365 224.469 482.771 224.129C483.177 223.788 483.674 223.576 484.201 223.519C484.727 223.462 485.258 223.562 485.728 223.806C486.04 223.969 486.316 224.191 486.542 224.461C486.768 224.73 486.938 225.041 487.044 225.377C487.149 225.712 487.188 226.065 487.157 226.415C487.126 226.765 487.027 227.106 486.864 227.418Z" fill="#263238"/>
<path d="M333.781 173.869C333.801 173.01 334.075 172.176 334.569 171.474C335.063 170.771 335.754 170.23 336.555 169.92C337.356 169.61 338.231 169.544 339.07 169.732C339.908 169.919 340.672 170.35 341.265 170.972C341.858 171.593 342.254 172.376 342.402 173.222C342.55 174.069 342.443 174.94 342.096 175.725C341.75 176.511 341.177 177.176 340.452 177.637C339.727 178.098 338.882 178.333 338.023 178.313C337.452 178.302 336.889 178.177 336.367 177.948C335.844 177.718 335.372 177.387 334.977 176.973C334.583 176.56 334.274 176.073 334.069 175.541C333.864 175.008 333.766 174.439 333.781 173.869Z" fill="white"/>
<path d="M338.124 178.995H337.998C336.686 178.965 335.44 178.417 334.531 177.471C333.623 176.524 333.126 175.256 333.149 173.944C333.179 172.632 333.727 171.384 334.673 170.473C335.619 169.562 336.887 169.063 338.2 169.083C339.478 169.162 340.677 169.729 341.549 170.668C342.42 171.606 342.897 172.844 342.881 174.124C342.865 175.405 342.357 176.63 341.462 177.546C340.567 178.463 339.354 178.999 338.074 179.045L338.124 178.995ZM338.124 170.295C337.155 170.295 336.224 170.674 335.53 171.351C334.836 172.028 334.435 172.95 334.412 173.919C334.392 174.902 334.762 175.852 335.441 176.562C336.12 177.272 337.054 177.684 338.036 177.707C338.524 177.726 339.011 177.645 339.467 177.47C339.923 177.294 340.339 177.026 340.687 176.684C341.223 176.175 341.594 175.517 341.754 174.795C341.913 174.073 341.853 173.32 341.582 172.633C341.311 171.945 340.84 171.354 340.231 170.935C339.622 170.517 338.901 170.289 338.162 170.283L338.124 170.295Z" fill="#37474F"/>
<path d="M322.076 173.944C321.959 173.945 321.846 173.904 321.757 173.827C321.669 173.75 321.612 173.644 321.596 173.528L320.144 160.396C320.132 160.334 320.132 160.269 320.144 160.207L325.195 142.656C325.237 142.547 325.32 142.458 325.425 142.406C325.53 142.355 325.651 142.345 325.763 142.378C325.885 142.413 325.988 142.496 326.05 142.607C326.111 142.718 326.126 142.849 326.091 142.972L321.116 160.434L322.568 173.465C322.58 173.589 322.543 173.714 322.465 173.812C322.388 173.911 322.276 173.976 322.152 173.995L322.076 173.944Z" fill="#263238"/>
<path d="M338.124 174.449C338.019 174.447 337.918 174.411 337.834 174.348L320.321 160.699C320.223 160.62 320.16 160.505 320.146 160.38C320.132 160.255 320.167 160.129 320.245 160.03C320.283 159.982 320.331 159.942 320.384 159.912C320.438 159.882 320.497 159.863 320.558 159.856C320.619 159.849 320.681 159.854 320.74 159.871C320.799 159.888 320.854 159.916 320.902 159.954L338.389 173.603C338.486 173.681 338.549 173.792 338.565 173.914C338.582 174.036 338.55 174.16 338.478 174.26C338.436 174.315 338.383 174.361 338.322 174.393C338.261 174.426 338.193 174.445 338.124 174.449Z" fill="#263238"/>
<path d="M321.824 142.681C321.841 141.932 322.081 141.206 322.511 140.593C322.942 139.98 323.545 139.508 324.243 139.238C324.942 138.968 325.705 138.91 326.436 139.074C327.167 139.237 327.833 139.613 328.351 140.155C328.868 140.697 329.213 141.38 329.342 142.118C329.471 142.856 329.378 143.616 329.076 144.301C328.773 144.986 328.274 145.566 327.642 145.968C327.009 146.37 326.272 146.575 325.523 146.558C325.026 146.546 324.535 146.437 324.08 146.236C323.625 146.035 323.214 145.746 322.87 145.386C322.527 145.026 322.257 144.602 322.078 144.138C321.898 143.674 321.812 143.179 321.824 142.681Z" fill="#37474F"/>
<path d="M319.45 173.389C319.46 172.856 319.628 172.338 319.933 171.901C320.238 171.464 320.666 171.128 321.163 170.934C321.659 170.741 322.202 170.699 322.722 170.815C323.243 170.931 323.717 171.198 324.085 171.584C324.453 171.97 324.698 172.456 324.789 172.981C324.88 173.506 324.813 174.046 324.596 174.533C324.379 175.02 324.023 175.432 323.572 175.716C323.121 176 322.596 176.144 322.063 176.129C321.355 176.109 320.682 175.81 320.193 175.297C319.703 174.784 319.436 174.098 319.45 173.389Z" fill="#263238"/>
<path d="M446.56 156.368L456.056 177.833C456.183 178.124 456.251 178.437 456.256 178.754C456.261 179.072 456.203 179.387 456.086 179.682C455.968 179.976 455.794 180.245 455.572 180.472C455.35 180.698 455.085 180.879 454.793 181.003C454.205 181.252 453.542 181.26 452.949 181.023C452.355 180.787 451.879 180.326 451.624 179.74L442.116 158.275C441.866 157.687 441.859 157.024 442.095 156.431C442.332 155.837 442.793 155.361 443.379 155.106C443.968 154.852 444.634 154.843 445.23 155.079C445.827 155.316 446.305 155.78 446.56 156.368Z" fill="#37474F"/>
<path d="M384.539 280.209L416.977 277.936C417.363 277.912 417.744 278.042 418.035 278.297C418.326 278.553 418.504 278.913 418.53 279.3C418.554 279.684 418.426 280.063 418.173 280.354C417.92 280.644 417.563 280.824 417.179 280.853L384.741 283.125C384.549 283.139 384.357 283.115 384.175 283.053C383.992 282.992 383.824 282.895 383.68 282.768C383.535 282.641 383.417 282.487 383.333 282.314C383.249 282.142 383.199 281.954 383.188 281.762C383.174 281.571 383.199 281.379 383.259 281.198C383.32 281.017 383.415 280.849 383.541 280.705C383.667 280.56 383.819 280.442 383.991 280.357C384.162 280.272 384.348 280.222 384.539 280.209Z" fill="#263238"/>
<path d="M328.415 102.213L359.716 111.052C359.9 111.104 360.072 111.193 360.223 111.312C360.373 111.431 360.498 111.579 360.591 111.747C360.683 111.915 360.742 112.099 360.763 112.29C360.784 112.481 360.767 112.673 360.713 112.858C360.607 113.228 360.359 113.541 360.024 113.731C359.688 113.92 359.292 113.969 358.92 113.868L327.619 105.029C327.435 104.977 327.262 104.889 327.112 104.769C326.962 104.65 326.837 104.502 326.744 104.334C326.651 104.166 326.593 103.982 326.572 103.791C326.551 103.6 326.568 103.408 326.622 103.224C326.728 102.853 326.975 102.54 327.311 102.351C327.646 102.161 328.043 102.112 328.415 102.213Z" fill="#263238"/>
<path d="M305.068 84.2965L288.654 94.7764C288.209 95.0566 287.672 95.15 287.159 95.0366C286.646 94.9231 286.199 94.6118 285.914 94.1704C285.63 93.7248 285.534 93.1848 285.648 92.6687C285.761 92.1527 286.075 91.7028 286.52 91.4178L302.934 80.9378C303.382 80.6582 303.922 80.5664 304.438 80.6822C304.953 80.798 305.402 81.1121 305.687 81.5565C305.827 81.7769 305.922 82.0227 305.966 82.2799C306.011 82.537 306.004 82.8004 305.947 83.055C305.889 83.3095 305.782 83.5503 305.631 83.7633C305.48 83.9763 305.289 84.1575 305.068 84.2965Z" fill="#37474F"/>
<path d="M390.07 160.232C389.967 160.231 389.868 160.197 389.786 160.136C389.705 160.075 389.645 159.989 389.615 159.891C389.584 159.769 389.603 159.64 389.666 159.531C389.73 159.422 389.834 159.343 389.956 159.31L411.674 153.464C411.791 153.443 411.913 153.467 412.014 153.531C412.115 153.595 412.189 153.694 412.221 153.81C412.252 153.925 412.24 154.048 412.185 154.155C412.131 154.262 412.038 154.344 411.926 154.386L390.158 160.219L390.07 160.232Z" fill="#263238"/>
<path d="M410.36 154.714C410.206 154.438 410.136 154.123 410.16 153.807C410.184 153.492 410.301 153.19 410.496 152.941C410.692 152.692 410.956 152.506 411.257 152.407C411.557 152.308 411.88 152.3 412.185 152.384C412.49 152.468 412.764 152.641 412.971 152.88C413.178 153.119 413.31 153.414 413.35 153.728C413.39 154.042 413.336 154.361 413.195 154.644C413.054 154.927 412.832 155.163 412.557 155.32C412.374 155.428 412.171 155.497 411.96 155.525C411.75 155.552 411.536 155.537 411.331 155.481C411.126 155.424 410.935 155.327 410.768 155.196C410.601 155.064 410.463 154.9 410.36 154.714Z" fill="#37474F"/>
<path d="M388.668 160.56C388.459 160.187 388.407 159.746 388.523 159.334C388.639 158.922 388.914 158.573 389.287 158.363C389.47 158.258 389.671 158.19 389.881 158.164C390.09 158.137 390.303 158.153 390.506 158.209C390.709 158.266 390.899 158.362 391.065 158.492C391.231 158.623 391.369 158.785 391.471 158.969C391.595 159.154 391.68 159.362 391.72 159.581C391.76 159.8 391.754 160.025 391.703 160.242C391.652 160.458 391.557 160.662 391.424 160.84C391.29 161.018 391.121 161.167 390.928 161.277C390.734 161.387 390.52 161.455 390.299 161.479C390.077 161.502 389.854 161.479 389.641 161.412C389.429 161.345 389.233 161.234 389.066 161.088C388.898 160.941 388.763 160.762 388.668 160.56Z" fill="#37474F"/>
<path d="M426.005 211.041C426.21 210.535 426.253 209.978 426.129 209.447C426.005 208.916 425.718 208.436 425.31 208.074L387.153 177.53C386.979 177.376 386.77 177.268 386.545 177.215C386.319 177.161 386.084 177.165 385.86 177.225C385.636 177.285 385.43 177.4 385.261 177.559C385.093 177.718 384.966 177.916 384.893 178.136L372.733 205.915L348.491 224.135C348.29 224.254 348.123 224.422 348.004 224.623C347.885 224.824 347.818 225.052 347.809 225.285C347.8 225.518 347.85 225.75 347.954 225.959C348.057 226.169 348.211 226.349 348.402 226.483L386.559 257.027C387.002 257.341 387.532 257.511 388.075 257.511C388.618 257.511 389.147 257.341 389.59 257.027L413.896 238.769L426.005 211.041Z" fill="#37474F"/>
<path d="M412.671 237.834L371.559 204.93L383.731 177.152C383.802 176.932 383.928 176.733 384.095 176.574C384.263 176.414 384.467 176.299 384.691 176.239C384.914 176.179 385.148 176.176 385.373 176.229C385.598 176.282 385.806 176.391 385.979 176.545L424.148 207.089C424.555 207.452 424.838 207.933 424.96 208.464C425.082 208.996 425.037 209.552 424.83 210.056L412.671 237.834Z" fill="#37474F"/>
<path d="M411.724 234.211C411.654 234.21 411.586 234.183 411.535 234.135L374.64 204.614C374.521 204.491 374.438 204.337 374.403 204.17C374.367 204.002 374.379 203.828 374.438 203.667L385.107 179.235C385.128 179.19 385.158 179.15 385.195 179.118C385.232 179.085 385.275 179.06 385.322 179.045C385.37 179.036 385.42 179.037 385.468 179.048C385.515 179.059 385.56 179.079 385.6 179.109L422.482 208.629C422.605 208.749 422.691 208.904 422.726 209.072C422.762 209.241 422.748 209.416 422.684 209.576L411.964 234.021C411.945 234.066 411.915 234.105 411.878 234.136C411.841 234.166 411.797 234.188 411.749 234.198L411.724 234.211ZM375.107 204.134L411.623 233.39L422.166 209.299C422.184 209.228 422.184 209.154 422.166 209.084L385.612 179.841L375.006 203.92C374.982 203.989 374.982 204.065 375.006 204.134H375.107Z" fill="white"/>
<path d="M412.671 237.834L371.559 204.93L347.228 223.188C347.03 223.31 346.866 223.478 346.748 223.679C346.631 223.88 346.566 224.106 346.557 224.338C346.548 224.57 346.597 224.801 346.698 225.01C346.8 225.219 346.952 225.4 347.14 225.536L385.309 256.08C385.751 256.396 386.281 256.566 386.825 256.566C387.368 256.566 387.898 256.396 388.34 256.08L412.671 237.834Z" fill="#37474F"/>
<path opacity="0.3" d="M359.854 218.137L369.716 210.738C370.192 210.394 370.764 210.209 371.351 210.209C371.938 210.209 372.51 210.394 372.986 210.738L405.183 236.496C405.384 236.644 405.545 236.839 405.653 237.064C405.76 237.289 405.812 237.536 405.802 237.785C405.792 238.034 405.721 238.277 405.596 238.493C405.47 238.708 405.294 238.89 405.083 239.021L395.234 246.42C394.755 246.762 394.181 246.945 393.592 246.945C393.004 246.945 392.43 246.762 391.951 246.42L359.766 220.662C359.57 220.512 359.413 220.316 359.308 220.093C359.203 219.869 359.152 219.624 359.161 219.377C359.169 219.13 359.237 218.889 359.358 218.673C359.478 218.457 359.649 218.274 359.854 218.137Z" fill="white"/>
<path opacity="0.3" d="M361.622 232.923L366.597 229.135C366.812 228.98 367.07 228.896 367.336 228.896C367.601 228.896 367.859 228.98 368.074 229.135L381.319 239.779C381.413 239.842 381.49 239.928 381.543 240.028C381.596 240.128 381.624 240.24 381.624 240.353C381.624 240.467 381.596 240.578 381.543 240.678C381.49 240.779 381.413 240.864 381.319 240.928L376.269 244.653C376.054 244.808 375.795 244.891 375.53 244.891C375.265 244.891 375.007 244.808 374.792 244.653L361.572 234.072C361.481 234.004 361.407 233.915 361.359 233.813C361.31 233.71 361.287 233.597 361.292 233.484C361.297 233.37 361.33 233.26 361.387 233.162C361.445 233.064 361.526 232.982 361.622 232.923Z" fill="white"/>
<path opacity="0.4" d="M453.29 89.1829C455.138 82.6101 455.29 75.6762 453.733 69.0287C452.175 62.3811 448.958 56.2368 444.382 51.1693C439.807 46.1018 434.021 42.2764 427.567 40.0504C421.112 37.8244 414.199 37.2703 407.472 38.4399C400.745 39.6096 394.425 42.4647 389.101 46.7387C383.776 51.0128 379.622 56.5664 377.025 62.881C374.428 69.1956 373.474 76.0652 374.252 82.8484C375.029 89.6316 377.513 96.1072 381.471 101.67C382.891 103.613 383.862 105.847 384.312 108.211C384.828 111.084 386.139 113.754 388.096 115.919C390.054 118.084 392.579 119.657 395.385 120.459L408.252 124.108C411.061 124.908 414.039 124.903 416.845 124.093C419.651 123.282 422.173 121.699 424.123 119.524C425.725 117.757 427.706 116.375 429.919 115.484C435.545 113.146 440.57 109.566 444.618 105.011C448.665 100.456 451.63 95.0453 453.29 89.1829Z" fill="#37474F"/>
<path d="M409.918 134.12L388.782 128.11C388.017 127.89 387.37 127.376 386.982 126.681C386.594 125.985 386.497 125.165 386.711 124.398C386.821 124.012 387.007 123.651 387.258 123.337C387.509 123.024 387.819 122.763 388.172 122.57C388.524 122.377 388.911 122.257 389.311 122.215C389.711 122.173 390.114 122.212 390.499 122.327L411.623 128.338C412.388 128.558 413.035 129.072 413.423 129.767C413.811 130.463 413.908 131.283 413.694 132.05C413.585 132.436 413.401 132.796 413.151 133.11C412.901 133.423 412.592 133.684 412.24 133.877C411.889 134.07 411.503 134.191 411.104 134.232C410.705 134.274 410.302 134.236 409.918 134.12Z" fill="#37474F"/>
<path d="M405.474 141.936L388.453 137.1C387.687 136.877 387.04 136.361 386.653 135.663C386.265 134.966 386.168 134.144 386.383 133.376C386.603 132.61 387.117 131.964 387.812 131.576C388.508 131.188 389.328 131.09 390.095 131.305L407.115 136.153C407.88 136.374 408.527 136.888 408.915 137.583C409.303 138.278 409.4 139.099 409.186 139.866C408.966 140.631 408.452 141.278 407.756 141.665C407.061 142.053 406.241 142.151 405.474 141.936Z" fill="#37474F"/>
<path d="M408.302 124.701H408.189C408.024 124.67 407.878 124.577 407.781 124.44C407.685 124.303 407.645 124.134 407.671 123.969C407.873 122.706 411.168 103.312 417.431 88.6778C415.689 88.3495 413.807 87.9076 411.787 87.3394C409.767 86.7712 407.923 86.1525 406.269 85.5086C403.908 101.241 396.484 119.486 396.017 120.661C395.953 120.816 395.83 120.94 395.675 121.006C395.52 121.071 395.345 121.072 395.19 121.008C395.034 120.944 394.91 120.821 394.845 120.666C394.78 120.511 394.779 120.337 394.842 120.181C394.956 119.89 402.683 100.888 405.057 85.0161C392.797 79.9656 390.979 73.3493 390.815 70.4831C390.678 68.9007 391.036 67.315 391.839 65.9446C392.642 64.5742 393.85 63.4865 395.297 62.8314C398.176 61.6445 401.37 62.6042 403.845 65.3567C407.178 69.1447 407.519 76.266 406.459 84.2207C408.138 84.8899 410.032 85.4833 412.128 86.1273C414.224 86.7712 416.169 87.1626 417.961 87.4909C421.244 80.1676 425.298 74.2584 430.108 72.819C433.681 71.7457 436.901 72.6169 438.719 75.1296C439.596 76.4472 440.044 78.003 440.003 79.5848C439.962 81.1666 439.435 82.6973 438.492 83.9681C436.838 86.3293 431.838 90.9506 418.719 88.842C412.406 103.59 408.971 123.805 408.921 124.12C408.911 124.278 408.842 124.426 408.727 124.534C408.612 124.641 408.46 124.701 408.302 124.701ZM419.249 87.7056C431.813 89.5995 436.283 84.9783 437.457 83.3116C438.263 82.2499 438.719 80.9638 438.762 79.6313C438.805 78.2988 438.433 76.986 437.697 75.8746C436.207 73.8038 433.505 73.1094 430.462 74.0311C426.106 75.3695 422.343 80.8494 419.199 87.7435L419.249 87.7056ZM397.734 63.6016C397.05 63.601 396.372 63.7339 395.739 63.9931C394.528 64.5519 393.521 65.4727 392.856 66.6284C392.191 67.7841 391.901 69.1177 392.027 70.4452C392.153 72.4907 393.517 78.766 405.209 83.7535C406.194 76.266 405.878 69.6371 402.86 66.228C402.241 65.452 401.463 64.8165 400.579 64.3638C399.696 63.911 398.726 63.6512 397.734 63.6016Z" fill="white"/>
<path opacity="0.3" d="M277.688 301.772C307.479 286.977 308.07 227.542 279.007 169.021C249.944 110.499 202.233 75.0521 172.441 89.8473C142.65 104.642 142.059 164.077 171.122 222.599C200.185 281.12 247.896 316.567 277.688 301.772Z" fill="#37474F"/>
<path d="M199.145 460.136L208.488 459.985L210.635 438.318L201.291 438.456L199.145 460.136Z" fill="#B55B52"/>
<path d="M136.366 443.078L145.268 445.906L155.306 426.398L146.404 423.57L136.366 443.078Z" fill="#B55B52"/>
<path opacity="0.2" d="M210.635 438.318L209.524 449.492L200.18 449.643L201.291 438.469L210.635 438.318Z" fill="black"/>
<path opacity="0.2" d="M146.391 423.57L155.306 426.398L150.129 436.449L141.214 433.633L146.391 423.57Z" fill="black"/>
<path d="M212.996 447.282L197.175 447.522C197.175 447.522 203.488 386.069 205.471 357.028C205.991 345.443 205.856 333.838 205.067 322.268C204.12 305.323 203.513 298.542 202.238 277.128C201.329 261.85 200.218 251.963 200.218 251.963L232.958 254.653C232.958 254.653 234.221 328.783 230.534 357.053C226.67 386.448 212.996 447.282 212.996 447.282Z" fill="#37474F"/>
<path opacity="0.2" d="M209.221 272.494C213.324 287.747 209.347 321.876 205.496 331.157C205.382 328.253 205.231 325.285 205.067 322.318C204.12 305.373 203.501 298.593 202.226 277.178C202.226 276.749 202.226 276.332 202.226 275.916C204.343 274.381 206.709 273.224 209.221 272.494Z" fill="black"/>
<path d="M215.294 253.201C215.294 253.201 200.142 329.364 192.566 355.665C184.283 384.478 154.902 435.704 154.902 435.704L138.588 430.54C138.588 430.54 157.376 387.168 164.308 358.783C172.212 326.434 183.147 250.562 183.147 250.562L215.294 253.201Z" fill="#37474F"/>
<path d="M147.162 445.287L136.858 440.439C136.69 440.359 136.499 440.34 136.317 440.384C136.136 440.427 135.975 440.531 135.861 440.679L130.671 447.409C130.544 447.573 130.457 447.765 130.414 447.969C130.372 448.173 130.377 448.383 130.428 448.585C130.479 448.787 130.575 448.975 130.709 449.134C130.843 449.293 131.012 449.42 131.202 449.505C134.548 450.994 137.048 451.941 141.227 453.899C143.752 455.161 149.763 458.166 153.311 459.833C156.859 461.5 158.917 458.293 157.667 457.207C152.098 452.383 149.497 449.303 148.298 446.449C148.076 445.934 147.671 445.52 147.162 445.287Z" fill="#263238"/>
<path d="M208.413 458.899L198.21 459.063C198.024 459.065 197.845 459.132 197.702 459.252C197.559 459.371 197.462 459.536 197.427 459.719L195.71 468.04C195.666 468.241 195.668 468.45 195.717 468.65C195.765 468.85 195.859 469.036 195.99 469.195C196.122 469.353 196.288 469.479 196.476 469.564C196.664 469.648 196.868 469.688 197.074 469.682C200.761 469.568 206.064 469.265 210.698 469.189C216.102 469.113 216.721 469.328 223.059 469.189C226.847 469.189 227.895 465.237 226.292 464.909C218.956 463.432 217.049 463.356 210.673 459.555C209.992 459.137 209.211 458.91 208.413 458.899Z" fill="#263238"/>
<path d="M191.594 168.174C203.331 167.314 215.126 167.738 226.771 169.437C230.238 169.988 233.414 171.702 235.777 174.297C238.14 176.893 239.551 180.214 239.777 183.717C240.572 196.028 240.294 220.22 234.499 265.6C227.302 268.757 195.887 265.714 180.458 260.865C181.291 255.676 186.177 213.806 182.591 178.793C182.469 177.501 182.606 176.198 182.994 174.961C183.383 173.723 184.015 172.575 184.854 171.586C185.693 170.596 186.722 169.784 187.879 169.199C189.037 168.613 190.3 168.264 191.594 168.174Z" fill="#263238"/>
<path d="M194.182 184.942L192.263 188.869C191.632 190.216 191.013 191.579 190.407 192.96C189.145 195.7 188.071 198.465 186.998 201.243C185.925 204.021 185.003 206.824 184.157 209.614C183.356 212.373 182.698 215.171 182.187 217.998L180.925 213.693C182.003 215.107 183.449 216.198 185.104 216.849C187.226 217.694 189.459 218.23 191.733 218.44C194.249 218.707 196.782 218.779 199.309 218.655C201.92 218.555 204.525 218.319 207.112 217.948H207.301C208.057 217.844 208.824 218.017 209.461 218.437C210.097 218.856 210.56 219.493 210.762 220.228C210.964 220.963 210.893 221.747 210.56 222.433C210.228 223.119 209.658 223.661 208.955 223.958C207.478 224.589 206.152 225.056 204.726 225.511C203.299 225.965 201.897 226.37 200.445 226.698C197.487 227.405 194.468 227.828 191.43 227.96C188.135 228.124 184.836 227.757 181.657 226.875C177.965 225.866 174.642 223.814 172.086 220.965C171.613 220.422 171.258 219.788 171.04 219.102C170.823 218.415 170.749 217.692 170.824 216.975V216.66C171.148 213.261 171.692 209.887 172.452 206.559C173.223 203.314 174.119 200.119 175.18 197.013C176.24 193.907 177.415 190.839 178.715 187.846C179.372 186.344 180.041 184.866 180.748 183.389C181.455 181.912 182.162 180.485 183.033 178.919C183.846 177.52 185.166 176.486 186.72 176.032C188.273 175.577 189.942 175.737 191.381 176.478C192.82 177.218 193.92 178.483 194.453 180.012C194.986 181.54 194.912 183.214 194.246 184.69L194.182 184.942Z" fill="#B55B52"/>
<path d="M204.031 218.579L209.082 212.91L217.352 220.486C217.352 220.486 211.733 226.723 205.774 223.453L204.031 218.579Z" fill="#B55B52"/>
<path d="M217.327 210.725L220.648 214.198C220.919 214.483 221.126 214.823 221.255 215.195C221.384 215.567 221.433 215.962 221.397 216.354C221.361 216.746 221.242 217.126 221.047 217.468C220.853 217.811 220.587 218.108 220.269 218.339L217.327 220.473L209.056 212.897L214.006 210.195C214.541 209.908 215.156 209.805 215.756 209.901C216.356 209.996 216.907 210.286 217.327 210.725Z" fill="#B55B52"/>
<path d="M187.099 169.639C179.523 174.285 171.947 198.945 171.947 198.945L191.897 206.268C195.591 200.413 198.364 194.026 200.117 187.328C203.135 175.902 195.47 164.525 187.099 169.639Z" fill="#263238"/>
<path d="M230.042 170.018C229.878 170.018 230.269 170.018 230.458 170.018L231.229 170.081C231.784 170.081 232.34 170.156 232.933 170.156C234.107 170.156 235.332 170.156 236.557 170.156C239.082 170.081 241.608 169.803 244.133 169.5C245.396 169.336 246.658 169.146 247.921 168.906C249.183 168.667 250.446 168.439 251.785 168.199L255.673 167.341L259.55 166.381L254.878 172.063C255.274 169.783 255.435 167.469 255.358 165.156C255.267 162.643 255.019 160.138 254.613 157.656C254.209 155.131 253.683 152.555 253.035 149.929C252.416 147.404 251.633 144.702 250.913 142.265L250.838 142.037C250.593 141.182 250.657 140.267 251.02 139.454C251.382 138.641 252.019 137.982 252.819 137.592C253.619 137.201 254.531 137.105 255.394 137.32C256.258 137.535 257.018 138.047 257.542 138.767C259.262 141.231 260.799 143.818 262.138 146.507C263.49 149.196 264.663 151.972 265.648 154.815C266.673 157.75 267.45 160.766 267.972 163.831C268.534 167.09 268.699 170.405 268.464 173.705C268.367 174.932 267.917 176.106 267.169 177.085C266.421 178.064 265.406 178.806 264.247 179.222L263.792 179.386L259.575 180.902C258.148 181.369 256.721 181.811 255.269 182.164C252.362 183.019 249.412 183.719 246.431 184.26C243.369 184.828 240.273 185.195 237.163 185.359C235.572 185.359 233.981 185.472 232.327 185.359C231.506 185.359 230.66 185.27 229.802 185.182L228.463 185.018C227.958 184.942 227.643 184.904 226.784 184.715C224.883 184.23 223.245 183.027 222.213 181.358C221.181 179.69 220.837 177.686 221.253 175.769C221.668 173.852 222.811 172.171 224.441 171.079C226.071 169.988 228.06 169.571 229.991 169.917L230.042 170.018Z" fill="#B55B52"/>
<path d="M249.663 142.037L245.989 135.876L256.721 132.706C256.721 132.706 258.918 137.656 257.984 141.052C257.79 141.703 257.409 142.282 256.888 142.718C256.367 143.154 255.729 143.426 255.055 143.502L253.135 143.742C252.454 143.824 251.763 143.707 251.147 143.404C250.53 143.102 250.015 142.627 249.663 142.037Z" fill="#B55B52"/>
<path d="M248.615 126.052L251.582 125.711C252.476 125.62 253.373 125.849 254.113 126.358C254.853 126.867 255.388 127.622 255.623 128.489L256.721 132.706L245.989 135.876L245.32 130.206C245.216 129.22 245.503 128.233 246.119 127.456C246.736 126.68 247.632 126.176 248.615 126.052Z" fill="#B55B52"/>
<path d="M218.552 167.757C227.39 168.528 246.608 166.318 246.608 166.318L247.719 190.46C241.182 192.59 234.173 192.809 227.516 191.091C216.001 188.162 208.791 166.911 218.552 167.757Z" fill="#263238"/>
<path d="M203.791 144.108C204.827 151.002 205.597 163.565 200.609 167.909C204.157 171.76 209.296 176.747 217.403 177.417C222.542 175.157 223.842 171.912 221.835 168.869C214.259 166.709 214.751 161.065 216.317 155.825L203.791 144.108Z" fill="#B55B52"/>
<path opacity="0.2" d="M208.905 148.893L216.317 155.813C215.931 157.049 215.652 158.317 215.483 159.601C212.604 159.058 208.753 155.674 208.577 152.618C208.448 151.367 208.559 150.103 208.905 148.893Z" fill="black"/>
<path d="M218.69 120.913C228.135 127.226 220.054 137.328 220.054 137.328C220.054 137.328 215.37 129.045 218.69 120.913Z" fill="white"/>
<path d="M198.804 136.747C201.051 145.737 201.91 151.116 207.365 154.929C215.584 160.674 226.039 154.424 226.532 144.941C226.961 136.406 223.211 123.123 213.64 121.153C211.528 120.703 209.336 120.801 207.274 121.44C205.211 122.078 203.347 123.234 201.858 124.799C200.37 126.363 199.308 128.283 198.773 130.374C198.238 132.466 198.249 134.66 198.804 136.747Z" fill="#B55B52"/>
<path opacity="0.2" d="M213.716 136.355C213.032 136.305 212.346 136.391 211.695 136.608C211.045 136.825 210.444 137.168 209.928 137.618C211.261 137.45 212.548 137.021 213.716 136.355Z" fill="black"/>
<path opacity="0.2" d="M213.956 137.328C213.341 137.412 212.753 137.63 212.232 137.966C211.71 138.302 211.269 138.748 210.938 139.272C212.072 138.848 213.101 138.185 213.956 137.328Z" fill="black"/>
<path opacity="0.2" d="M214.208 143.136C214.003 143.049 213.781 143.009 213.558 143.02C213.336 143.031 213.118 143.093 212.923 143.2C212.727 143.306 212.559 143.456 212.429 143.638C212.3 143.819 212.213 144.027 212.175 144.247C212.746 143.708 213.446 143.325 214.208 143.136Z" fill="black"/>
<path opacity="0.2" d="M219.562 126.747C216.294 127.083 213.065 127.721 209.915 128.653C215.332 127.757 219.562 126.747 219.562 126.747Z" fill="black"/>
<path opacity="0.2" d="M221.178 127.365C221.178 127.365 213.829 128.881 210.597 130.673C214.186 129.779 217.719 128.674 221.178 127.365Z" fill="black"/>
<path d="M201.354 143.022C205.142 142.643 203.45 136.848 201.986 135.535C204.928 134.272 207.402 129.335 205.344 126.696C216.241 127.542 222.466 126.38 223.299 116.595C220.18 117.226 216.898 114.07 212.706 117.012C213.011 116.405 213.187 115.742 213.224 115.064C213.261 114.386 213.158 113.707 212.921 113.071C212.684 112.434 212.318 111.854 211.847 111.365C211.375 110.877 210.808 110.491 210.18 110.231C210.18 110.231 209.498 116.544 204.713 117.491C199.928 118.438 194.864 121.797 194.549 125.332C193.412 122.416 192.238 122.226 192.238 122.226C192.776 123.318 193.056 124.519 193.056 125.737C193.056 126.954 192.776 128.155 192.238 129.247C190.445 133.275 193.501 134.6 193.501 134.6C193.501 134.6 189.586 134.6 192.049 139.878C193.867 143.565 200.508 148.3 201.354 143.022Z" fill="white"/>
<path d="M196.354 145.194C197.545 147.036 199.414 148.334 201.556 148.805C204.397 149.399 205.622 146.81 204.675 144.222C203.817 141.898 201.316 138.792 198.539 139.361C197.934 139.494 197.373 139.776 196.905 140.182C196.437 140.588 196.079 141.104 195.862 141.684C195.645 142.264 195.576 142.888 195.662 143.501C195.748 144.115 195.986 144.696 196.354 145.194Z" fill="#B55B52"/>
<path d="M156.758 436.676L137.553 430.59L139.371 424.858L160.95 429.668L156.758 436.676Z" fill="#37474F"/>
<path opacity="0.3" d="M156.758 436.676L137.553 430.59L139.371 424.858L160.95 429.668L156.758 436.676Z" fill="black"/>
<path d="M214.991 447.611L196.14 447.914L196.039 441.815L216.203 441.171L214.991 447.611Z" fill="#37474F"/>
<path opacity="0.3" d="M214.991 447.611L196.14 447.914L196.039 441.815L216.203 441.171L214.991 447.611Z" fill="black"/>
<path d="M214.486 136.456C214.6 137.201 215.079 137.719 215.572 137.719C216.064 137.719 216.367 136.987 216.254 136.242C216.14 135.497 215.66 134.979 215.168 134.979C214.675 134.979 214.372 135.711 214.486 136.456Z" fill="#263238"/>
<path d="M222.908 135.206C223.021 135.951 223.501 136.469 223.994 136.469C224.486 136.469 224.789 135.737 224.675 134.992C224.562 134.247 224.082 133.729 223.59 133.729C223.097 133.729 222.794 134.461 222.908 135.206Z" fill="#263238"/>
<path d="M220.294 135.964C221.517 138.113 223.034 140.081 224.802 141.81C224.347 142.25 223.802 142.585 223.204 142.792C222.607 142.999 221.971 143.074 221.342 143.01L220.294 135.964Z" fill="#A02724"/>
<path d="M218.602 145.876C217.764 146.005 216.909 145.959 216.09 145.742C215.271 145.525 214.505 145.14 213.842 144.613C213.82 144.594 213.803 144.571 213.79 144.545C213.777 144.519 213.77 144.491 213.768 144.462C213.767 144.434 213.77 144.405 213.78 144.378C213.789 144.35 213.804 144.325 213.823 144.304C213.842 144.282 213.865 144.265 213.891 144.252C213.917 144.239 213.945 144.232 213.974 144.23C214.002 144.228 214.031 144.232 214.058 144.242C214.086 144.251 214.111 144.266 214.132 144.285C214.884 144.844 215.758 145.217 216.681 145.375C217.605 145.533 218.553 145.471 219.448 145.194C219.475 145.186 219.504 145.184 219.532 145.188C219.56 145.191 219.588 145.2 219.612 145.214C219.637 145.228 219.659 145.247 219.676 145.27C219.693 145.292 219.706 145.318 219.713 145.345C219.723 145.374 219.726 145.403 219.724 145.433C219.721 145.463 219.713 145.492 219.699 145.518C219.684 145.544 219.665 145.567 219.641 145.585C219.618 145.603 219.591 145.616 219.562 145.623C219.248 145.73 218.928 145.815 218.602 145.876Z" fill="#263238"/>
<path d="M209.991 134.499C209.92 134.518 209.846 134.518 209.776 134.499C209.723 134.475 209.675 134.44 209.635 134.397C209.596 134.353 209.565 134.302 209.546 134.246C209.528 134.191 209.52 134.132 209.525 134.073C209.53 134.015 209.546 133.958 209.574 133.906C209.875 133.272 210.323 132.718 210.881 132.292C211.439 131.866 212.09 131.58 212.781 131.456C212.898 131.445 213.014 131.48 213.106 131.553C213.198 131.626 213.258 131.732 213.274 131.848C213.285 131.964 213.25 132.081 213.177 132.173C213.104 132.264 212.998 132.324 212.882 132.34C212.333 132.44 211.817 132.671 211.377 133.014C210.937 133.357 210.587 133.802 210.357 134.31C210.314 134.367 210.259 134.413 210.195 134.446C210.132 134.479 210.062 134.497 209.991 134.499Z" fill="white"/>
<path d="M224.524 131.62C224.451 131.625 224.378 131.611 224.312 131.58C224.246 131.549 224.189 131.502 224.145 131.444C223.829 130.986 223.409 130.61 222.92 130.347C222.43 130.083 221.885 129.94 221.329 129.928C221.212 129.928 221.1 129.882 221.017 129.799C220.934 129.716 220.887 129.604 220.887 129.487C220.887 129.369 220.934 129.257 221.017 129.174C221.1 129.091 221.212 129.045 221.329 129.045C222.031 129.048 222.721 129.22 223.343 129.545C223.965 129.87 224.499 130.339 224.903 130.913C224.937 130.96 224.963 131.013 224.977 131.069C224.992 131.125 224.995 131.184 224.987 131.241C224.978 131.298 224.959 131.354 224.929 131.404C224.9 131.454 224.861 131.497 224.814 131.532C224.73 131.593 224.628 131.624 224.524 131.62Z" fill="white"/>
<path d="M149.27 448.078C148.531 447.708 147.836 447.254 147.199 446.727C147.164 446.702 147.138 446.666 147.124 446.626C147.111 446.585 147.11 446.54 147.124 446.499C147.136 446.457 147.16 446.418 147.194 446.389C147.227 446.36 147.269 446.341 147.313 446.335C147.704 446.335 151.227 445.893 151.934 446.815C152.014 446.918 152.064 447.041 152.077 447.17C152.091 447.3 152.067 447.431 152.01 447.547C151.94 447.754 151.82 447.94 151.662 448.089C151.504 448.239 151.311 448.348 151.101 448.406C150.471 448.505 149.826 448.39 149.27 448.078ZM147.906 446.676C148.734 447.476 149.837 447.928 150.987 447.939C151.13 447.899 151.26 447.823 151.366 447.72C151.472 447.616 151.55 447.487 151.593 447.345C151.593 447.181 151.593 447.105 151.593 447.055C151.215 446.676 149.321 446.6 147.906 446.676Z" fill="#37474F"/>
<path d="M147.237 446.765C147.202 446.742 147.172 446.712 147.149 446.676C147.13 446.641 147.12 446.602 147.12 446.563C147.12 446.523 147.13 446.484 147.149 446.449C147.149 446.348 148.55 444.012 149.914 443.658C150.078 443.613 150.249 443.603 150.417 443.629C150.584 443.655 150.745 443.717 150.886 443.81C151.033 443.884 151.151 444.005 151.222 444.154C151.293 444.302 151.312 444.47 151.278 444.631C151.013 445.653 148.449 446.714 147.351 446.777L147.237 446.765ZM150.558 444.138C150.383 444.075 150.19 444.075 150.015 444.138C149.144 444.366 148.21 445.653 147.78 446.323C148.954 446.07 150.684 445.174 150.848 444.568C150.848 444.568 150.848 444.391 150.646 444.227L150.558 444.138Z" fill="#37474F"/>
<path d="M209.347 460.174C209.31 460.162 209.276 460.141 209.25 460.112C209.223 460.083 209.204 460.048 209.195 460.01C209.19 459.963 209.198 459.916 209.218 459.874C209.238 459.831 209.27 459.795 209.309 459.77C209.726 459.555 213.463 457.586 214.6 458.204C214.709 458.258 214.802 458.341 214.868 458.443C214.935 458.545 214.973 458.663 214.978 458.785C215.003 458.985 214.978 459.188 214.908 459.377C214.838 459.566 214.723 459.735 214.574 459.871C213.564 460.793 210.887 460.464 209.372 460.187L209.347 460.174ZM214.309 458.558C213.602 458.318 211.582 459.126 210.104 459.82C212.175 460.136 213.716 460.022 214.284 459.505C214.379 459.413 214.452 459.3 214.496 459.175C214.54 459.05 214.554 458.916 214.536 458.785C214.538 458.738 214.526 458.691 214.501 458.65C214.477 458.61 214.441 458.578 214.397 458.558H214.309Z" fill="#37474F"/>
<path d="M209.347 460.174H209.284C209.251 460.152 209.225 460.122 209.21 460.086C209.194 460.05 209.189 460.01 209.195 459.972C209.195 459.871 209.41 457.346 210.584 456.361C210.755 456.209 210.956 456.095 211.173 456.026C211.39 455.956 211.62 455.933 211.847 455.957C212.453 455.957 212.642 456.31 212.68 456.563C212.87 457.623 210.673 459.669 209.549 460.199C209.516 460.215 209.48 460.22 209.444 460.216C209.408 460.212 209.375 460.197 209.347 460.174ZM211.998 456.386H211.771C211.61 456.371 211.447 456.388 211.293 456.438C211.139 456.488 210.996 456.569 210.875 456.676C210.188 457.498 209.774 458.513 209.688 459.58C210.824 458.873 212.314 457.257 212.213 456.626C212.201 456.575 212.188 456.474 211.998 456.411V456.386Z" fill="#37474F"/>
<path d="M128.348 147.757C126.852 134.364 127.539 120.816 130.381 107.643L131.644 107.933C128.835 120.975 128.157 134.385 129.636 147.643L128.348 147.757ZM134.661 97.731L133.487 97.3017C134.652 94.1368 136.036 91.0569 137.629 88.0844L138.752 88.6778C137.175 91.598 135.8 94.6228 134.636 97.731H134.661Z" fill="#37474F"/>
<path d="M172.869 65.8618C214.89 57.4652 271.621 105.686 299.601 173.553C327.581 241.42 316.205 303.252 274.209 311.636C232.213 320.02 175.508 271.812 147.477 203.945C119.446 136.078 130.873 74.1952 172.869 65.8618ZM169.561 199.538C194.283 259.527 241.532 302.734 274.941 296.042C308.351 289.35 315.498 235.309 290.775 175.321C266.052 115.332 218.804 72.1119 185.382 78.8039C151.96 85.4959 144.826 139.537 169.561 199.538ZM135.861 166.874C138.487 162.265 154.03 156.128 157.465 159.55ZM292.568 285.903C296.52 285.424 300.409 294.944 297.77 298.467ZM233.969 95.7486C236.62 95.0289 238.943 91.3799 239.259 89.246Z" fill="white"/>
<path d="M264.461 313.214C223.59 313.214 172.806 267.039 146.896 204.185C128.866 160.472 126.58 116.671 140.911 89.8774C148.071 76.4933 159.081 67.9704 172.743 65.2431C214.966 56.8086 272.138 105.282 300.182 173.313C318.2 217.039 320.498 260.84 306.154 287.621C304.017 291.671 301.369 295.431 298.275 298.808C291.948 305.72 283.57 310.421 274.373 312.217C271.111 312.877 267.79 313.212 264.461 313.214ZM136.568 166.937C139.284 179.514 143.129 191.82 148.058 203.705C175.836 271.194 232.415 319.338 274.083 311.03C283.014 309.282 291.152 304.72 297.303 298.012C298.566 296.08 297.821 292.09 296.28 289.439C295.22 287.595 293.944 286.535 292.808 286.535C288.148 291.739 281.921 295.285 275.068 296.636C241.368 303.391 193.778 259.905 169.005 199.753C163.65 186.892 159.602 173.525 156.922 159.853C156.114 159.197 154.485 159.007 152.288 159.298C146.467 160.055 138.588 163.944 136.568 166.937ZM170.142 199.298C194.725 258.921 241.683 302.053 274.828 295.424C284.575 293.479 292.177 287.52 297.429 277.747C309.576 255.019 306.798 215.877 290.182 175.611C265.598 115.976 218.653 72.8569 185.508 79.4732C175.748 81.4176 168.134 87.39 162.881 97.1502C150.747 119.853 153.525 158.982 170.142 199.298ZM293.78 285.411C295.356 286.056 296.638 287.261 297.379 288.795C298.629 290.912 299.276 293.331 299.247 295.79C301.476 293.071 303.426 290.135 305.068 287.027C319.235 260.575 316.924 217.177 299.045 173.793C284.815 139.272 263.06 109.815 239.701 90.3824C238.889 92.7009 237.307 94.6708 235.219 95.9633C256.797 113.325 277.631 141.621 291.432 175.081C308.187 215.725 310.94 255.272 298.629 278.29C297.257 280.821 295.632 283.207 293.78 285.411ZM172.983 66.4805C159.7 69.1321 148.992 77.4277 142.01 90.4708C132.073 109.044 130.242 135.926 136.227 165.333C139.308 162.05 146.896 158.755 152.073 158.06C153.573 157.782 155.117 157.86 156.581 158.288C152.111 133.54 153.74 111.57 161.758 96.5441C167.124 86.5187 175.243 80.1297 185.243 78.1726C199.877 75.2559 217.137 81.7964 234.006 95.0669C236.128 94.3219 238.085 91.3926 238.552 89.4986C216.493 71.5311 193.021 62.4779 172.983 66.4805Z" fill="#37474F"/>
<path d="M229.903 137.643L269.259 133.578L268.325 126.431L229.246 132.593L229.903 137.643Z" fill="#37474F"/>
<path opacity="0.2" d="M251.974 129.007L252.795 135.27L269.247 133.578L268.312 126.431L251.974 129.007Z" fill="black"/>
<path d="M254.916 134.903C254.967 135.2 255.122 135.468 255.354 135.66C255.585 135.853 255.878 135.956 256.178 135.951L301.823 131.734C303.641 131.494 302.088 119.613 300.283 119.853L255.067 127.428C254.764 127.492 254.495 127.665 254.311 127.914C254.128 128.163 254.042 128.471 254.07 128.78L254.916 134.903Z" fill="#37474F"/>
<path d="M230.042 138.679C230.248 138.653 230.435 138.547 230.563 138.384C230.691 138.221 230.748 138.013 230.723 137.807L229.991 132.227C229.963 132.02 229.854 131.832 229.689 131.705C229.524 131.577 229.315 131.52 229.107 131.545C228.903 131.576 228.718 131.686 228.593 131.851C228.468 132.016 228.413 132.223 228.438 132.429L229.17 138.009C229.183 138.111 229.215 138.209 229.266 138.298C229.317 138.387 229.385 138.464 229.466 138.527C229.547 138.589 229.64 138.634 229.738 138.661C229.837 138.687 229.94 138.693 230.042 138.679Z" fill="#37474F"/>
<path d="M394.716 329.515C394.798 329.189 395.007 328.908 395.296 328.735C395.584 328.562 395.93 328.511 396.257 328.593C396.583 328.675 396.864 328.884 397.037 329.173C397.209 329.462 397.26 329.807 397.178 330.134C397.373 334.08 396.5 338.005 394.653 341.498C390.663 348.354 382.368 350.791 382.368 350.791L394.716 329.515Z" fill="#37474F"/>
<path d="M384.489 365.627C377.469 365.726 370.612 363.507 364.981 359.314C360.396 355.474 356.725 350.66 354.236 345.222C354.129 345.091 354.049 344.941 354 344.779C353.951 344.617 353.935 344.447 353.952 344.279C353.969 344.11 354.019 343.947 354.099 343.798C354.179 343.649 354.288 343.518 354.419 343.411C354.55 343.304 354.701 343.224 354.863 343.175C355.025 343.126 355.195 343.11 355.363 343.127C355.531 343.144 355.694 343.194 355.843 343.274C355.992 343.354 356.124 343.463 356.231 343.594L384.489 365.627Z" fill="#37474F"/>
<path d="M408.353 381.524C401.042 392.281 387.14 395.299 387.14 395.299L411.459 359.554C411.576 359.263 411.797 359.026 412.079 358.889C412.362 358.753 412.684 358.726 412.985 358.814C413.286 358.902 413.543 359.099 413.707 359.367C413.871 359.634 413.929 359.953 413.871 360.261C413.959 365.223 413.315 374.213 408.353 381.524Z" fill="#37474F"/>
<path d="M386.837 439.315H386.762C386.687 439.306 386.615 439.282 386.55 439.244C386.485 439.206 386.429 439.156 386.384 439.095C386.339 439.035 386.307 438.967 386.289 438.894C386.272 438.821 386.269 438.745 386.282 438.671C390.07 411.852 383.138 340.311 375.006 322.684C374.975 322.616 374.957 322.543 374.954 322.468C374.951 322.393 374.962 322.318 374.988 322.248C375.014 322.178 375.053 322.113 375.104 322.058C375.155 322.003 375.216 321.958 375.284 321.927C375.352 321.895 375.426 321.877 375.5 321.874C375.575 321.871 375.65 321.883 375.72 321.909C375.791 321.934 375.855 321.974 375.91 322.025C375.966 322.075 376.01 322.136 376.042 322.204C384.236 339.881 391.193 411.852 387.405 438.835C387.384 438.97 387.315 439.093 387.211 439.181C387.106 439.269 386.974 439.317 386.837 439.315Z" fill="#263238"/>
<path d="M370.991 407.534H402.684C403.079 407.533 403.471 407.614 403.834 407.772C404.197 407.93 404.523 408.162 404.791 408.453C405.059 408.744 405.264 409.087 405.393 409.462C405.521 409.836 405.57 410.233 405.537 410.628L401.055 467.257C400.997 467.974 400.672 468.643 400.143 469.13C399.614 469.617 398.92 469.886 398.201 469.884H375.473C374.754 469.886 374.061 469.617 373.532 469.13C373.003 468.643 372.677 467.974 372.62 467.257L368.125 410.628C368.093 410.233 368.144 409.835 368.274 409.461C368.404 409.086 368.61 408.743 368.88 408.452C369.149 408.162 369.476 407.93 369.839 407.772C370.203 407.614 370.595 407.533 370.991 407.534Z" fill="#37474F"/>
<path d="M370.814 325.601C371.441 326.534 372.331 327.261 373.37 327.688C374.41 328.116 375.553 328.225 376.655 328.003C377.757 327.78 378.769 327.236 379.561 326.439C380.354 325.641 380.892 324.627 381.108 323.523C381.323 322.42 381.207 321.278 380.773 320.24C380.339 319.203 379.607 318.318 378.67 317.697C377.733 317.076 376.633 316.747 375.509 316.751C374.384 316.756 373.287 317.094 372.355 317.722C371.107 318.563 370.244 319.866 369.955 321.343C369.666 322.82 369.975 324.351 370.814 325.601Z" fill="white"/>
<path d="M375.537 328.871C373.993 328.874 372.5 328.322 371.329 327.316C370.158 326.31 369.387 324.917 369.157 323.391C368.928 321.865 369.254 320.306 370.076 319C370.899 317.694 372.163 316.727 373.639 316.275C375.115 315.823 376.704 315.916 378.117 316.537C379.53 317.158 380.673 318.266 381.338 319.66C382.002 321.053 382.144 322.639 381.737 324.128C381.331 325.617 380.403 326.91 379.123 327.773C378.063 328.487 376.814 328.869 375.537 328.871ZM375.537 317.507C374.442 317.511 373.379 317.88 372.518 318.556C371.657 319.232 371.046 320.177 370.783 321.239C370.52 322.302 370.62 323.423 371.067 324.422C371.513 325.422 372.281 326.244 373.248 326.757C374.215 327.271 375.326 327.446 376.404 327.256C377.483 327.066 378.467 326.521 379.2 325.707C379.933 324.894 380.373 323.859 380.45 322.767C380.528 321.675 380.238 320.588 379.628 319.679C379.171 319.009 378.557 318.461 377.839 318.085C377.122 317.708 376.322 317.514 375.511 317.52L375.537 317.507Z" fill="#37474F"/>
<path d="M375.928 341.725C375.975 342.197 376.161 342.644 376.462 343.01C376.763 343.376 377.166 343.645 377.619 343.783C378.073 343.92 378.557 343.92 379.011 343.783C379.465 343.645 379.867 343.377 380.168 343.01C380.469 342.644 380.655 342.197 380.702 341.725C380.749 341.254 380.656 340.778 380.433 340.36C380.21 339.941 379.869 339.598 379.451 339.374C379.034 339.149 378.559 339.054 378.087 339.099C377.773 339.129 377.467 339.221 377.188 339.369C376.91 339.517 376.663 339.719 376.462 339.963C376.261 340.207 376.111 340.489 376.019 340.791C375.928 341.093 375.897 341.411 375.928 341.725Z" fill="#263238"/>
<path d="M382.115 390.45C382.115 390.925 382.256 391.389 382.519 391.783C382.783 392.178 383.158 392.485 383.596 392.667C384.034 392.848 384.517 392.896 384.982 392.803C385.447 392.711 385.875 392.482 386.21 392.147C386.546 391.811 386.774 391.384 386.867 390.919C386.96 390.453 386.912 389.971 386.73 389.532C386.549 389.094 386.241 388.719 385.847 388.456C385.452 388.192 384.988 388.051 384.514 388.051C383.878 388.051 383.268 388.304 382.818 388.754C382.368 389.204 382.115 389.814 382.115 390.45Z" fill="#263238"/>
<path d="M389.173 374.895C389.869 374.793 390.519 374.488 391.042 374.017C391.565 373.546 391.936 372.931 392.11 372.25C392.283 371.568 392.251 370.851 392.017 370.187C391.783 369.524 391.358 368.945 390.796 368.523C390.233 368.101 389.558 367.855 388.856 367.816C388.153 367.777 387.455 367.947 386.85 368.305C386.244 368.662 385.758 369.191 385.452 369.825C385.146 370.458 385.035 371.168 385.133 371.864C385.267 372.802 385.768 373.647 386.526 374.216C387.283 374.784 388.236 375.028 389.173 374.895Z" fill="#263238"/>
</svg>
